<?xml version="1.0" encoding="UTF-8" standalone="no"?>
<!-- Created with Inkscape (http://www.inkscape.org/) -->
<svg xmlns:dc="http://purl.org/dc/elements/1.1/" xmlns:cc="http://web.resource.org/cc/" xmlns:rdf="http://www.w3.org/1999/02/22-rdf-syntax-ns#" xmlns:svg="http://www.w3.org/2000/svg" xmlns="http://www.w3.org/2000/svg" xmlns:sodipodi="http://sodipodi.sourceforge.net/DTD/sodipodi-0.dtd" xmlns:inkscape="http://www.inkscape.org/namespaces/inkscape" width="800" height="533" id="svg2" sodipodi:version="0.32" inkscape:version="0.45.1" version="1.0" sodipodi:docbase="C:\Documents and Settings\Rondador Nocturno\Escritorio" sodipodi:docname="Flag_of_Harad.svg" inkscape:output_extension="org.inkscape.output.svg.inkscape">
  <defs id="defs4">
    <linearGradient id="linearGradient3258">
      <stop style="stop-color:#ff0000;stop-opacity:1;" offset="0" id="stop3260"/>
      <stop style="stop-color:#ff0000;stop-opacity:0.70408165;" offset="1" id="stop3262"/>
    </linearGradient>
  </defs>
  <sodipodi:namedview id="base" pagecolor="#ffffff" bordercolor="#666666" borderopacity="1.0" inkscape:pageopacity="0.0" inkscape:pageshadow="2" inkscape:zoom="1.4296435" inkscape:cx="399.99999" inkscape:cy="266.49999" inkscape:document-units="px" inkscape:current-layer="layer1" inkscape:window-width="1280" inkscape:window-height="971" inkscape:window-x="0" inkscape:window-y="23"/>
  <metadata id="metadata7">
    <rdf:RDF>
      <cc:Work rdf:about="">
        <dc:format>image/svg+xml</dc:format>
        <dc:type rdf:resource="http://purl.org/dc/dcmitype/StillImage"/>
      </cc:Work>
    </rdf:RDF>
  </metadata>
  <g inkscape:label="Capa 1" inkscape:groupmode="layer" id="layer1" transform="translate(-606.74841,-45.30201)">
    <rect style="fill:#dc0000;fill-opacity:1;stroke:none;stroke-opacity:1" id="rect2163" width="800.19946" height="537.1969" x="606.7406" y="40.510384"/>
    <path style="fill:#000000;fill-opacity:1" d="M 1406.1547,49.30201 L 1406.1547,315.20826 L 1406.1547,581.70826 L 1006.1547,581.70826 L 606.74841,581.70826 L 606.74841,582.30201 L 1006.7484,582.30201 L 1406.7484,582.30201 L 1406.7484,315.80201 L 1406.7484,49.30201 L 1406.1547,49.30201 z M 972.27966,107.42701 C 969.04536,107.48738 966.01827,107.88964 963.15466,108.67701 C 960.67965,109.35752 952.68806,110.23933 945.40466,110.61451 C 937.58427,111.01735 931.68401,111.77268 930.99841,112.45826 C 929.40092,114.05575 929.68061,118.47764 931.68591,123.48951 C 933.58901,128.24575 935.66656,128.88586 937.34216,125.20826 C 938.42087,122.84073 938.90011,122.70298 946.56091,122.70826 C 951.01011,122.71132 956.40421,123.20323 958.56091,123.80201 C 963.2321,125.09894 968.15466,129.67685 968.15466,132.73951 C 968.15465,134.61186 967.75196,134.84768 965.40466,134.33326 C 963.89215,134.0018 959.91371,133.43754 956.56091,133.08326 C 951.25481,132.52259 949.57011,132.80692 943.56091,135.30201 C 937.33581,137.88671 935.52386,138.16471 925.15466,138.17701 C 915.30375,138.1887 913.15276,137.91884 910.15466,136.14576 C 907.02325,134.29384 906.67346,133.6883 906.96716,130.39576 C 907.33007,126.32611 906.28791,125.64269 904.37341,128.70826 C 902.77741,131.26391 901.07406,131.22382 897.71716,128.58326 C 893.91157,125.58978 893.22256,127.12635 896.71716,130.80201 C 906.46215,141.05197 924.86926,144.46012 944.15466,139.58326 C 953.46177,137.2297 963.28391,137.43128 965.87341,140.02076 C 967.17441,141.32179 967.12331,141.70835 965.37341,143.45826 C 964.28172,144.54999 960.36831,146.45161 956.68591,147.67701 L 949.99841,149.92701 L 947.81091,147.86451 C 945.38531,145.58577 944.42301,145.91881 941.87341,149.92701 C 938.0784,155.89297 941.22086,163.46905 946.90466,162.05201 C 948.40876,161.67701 951.59861,160.32497 953.99841,159.05201 C 957.93242,156.96523 959.21356,156.80971 967.02966,157.36451 C 978.43355,158.17399 983.51825,156.66378 1002.6547,146.73951 C 1021.0557,137.19663 1028.7222,135.14233 1043.0609,135.98951 C 1057.5732,136.84694 1068.2276,140.88605 1076.4672,148.61451 C 1081.5668,153.39777 1083.1592,156.63146 1083.1547,162.39576 C 1083.1478,171.16652 1078.0702,176.18796 1066.0609,179.33326 C 1057.1851,181.6579 1032.2823,181.47092 996.37341,178.80201 C 962.88032,176.31265 945.40016,176.1524 929.71716,178.20826 C 896.68958,182.5378 880.67286,195.29851 877.15466,220.08326 C 874.28336,240.31054 881.13916,258.91305 894.90466,268.33326 C 906.92936,276.56217 920.79211,279.74315 944.74841,279.77076 C 962.32772,279.791 971.86305,278.92518 1008.6547,273.95826 C 1031.8734,270.8237 1038.4632,270.32284 1055.7172,270.27076 L 1075.7797,270.20826 L 1081.5922,273.20826 C 1088.3693,276.6962 1091.1547,280.83206 1091.1547,287.52076 C 1091.1547,295.85153 1086.0657,300.47692 1074.3109,302.77076 C 1066.7353,304.24907 1042.776,303.52638 1021.6547,301.20826 C 956.79265,294.08946 930.48126,293.8968 908.15466,300.36451 C 897.72657,303.38537 890.53381,307.42293 884.18591,313.77076 C 874.31922,323.63751 869.96206,339.17405 872.09216,356.95826 C 874.08894,373.63065 878.29861,382.96722 887.62341,391.48951 C 898.43242,401.36836 911.47666,405.56026 934.15466,406.39576 C 950.91915,407.01341 966.345,405.52579 999.81091,400.11451 C 1047.1764,392.45573 1065.2707,391.08491 1076.2172,394.30201 C 1086.6836,397.378 1091.1547,402.89967 1091.1547,412.77076 C 1091.1547,419.88029 1088.835,424.22373 1083.2797,427.48951 C 1078.7039,430.17949 1078.4829,430.20229 1060.6547,430.14576 C 1045.9048,430.09899 1038.6824,429.50679 1020.6547,426.89576 C 975.26555,420.32186 954.54456,420.99116 938.84216,429.48951 C 928.95077,434.84286 921.95711,446.27371 920.31091,459.77076 C 918.04312,478.36469 924.16176,490.22148 942.34216,502.48951 C 950.86325,508.23945 953.15401,510.74725 955.81091,517.23951 C 958.47861,523.75816 960.36736,522.7855 961.84216,514.17701 C 963.62705,503.75821 962.85786,500.54879 956.27966,490.83326 C 952.95005,485.91561 952.62821,484.77559 952.31091,477.23951 C 951.7488,463.88782 955.75116,458.3064 968.27966,455.08326 C 977.14506,452.80251 990.79235,453.78393 1019.5297,458.77076 C 1058.4175,465.51902 1070.8625,466.92069 1086.1547,466.33326 C 1093.9597,466.03346 1102.1858,465.12935 1105.6547,464.17701 C 1128.8694,457.80365 1140.0417,440.94809 1140.4672,411.70826 C 1140.6581,398.58632 1139.3729,391.96712 1134.8734,383.39576 C 1129.2458,372.67566 1116.9137,364.00317 1102.1547,360.36451 C 1079.167,354.69717 1052.0112,355.57111 983.65466,364.23951 C 977.05465,365.07646 963.76111,366.03427 954.12341,366.36451 C 939.3245,366.87159 935.70301,366.7111 930.74841,365.27076 C 920.58982,362.31758 917.15466,358.61932 917.15466,350.64576 C 917.15465,344.71202 919.75126,341.04069 926.15466,337.89576 C 931.64126,335.20111 931.73756,335.19261 953.15466,335.27076 C 970.62255,335.33451 979.90565,335.97652 1002.6547,338.61451 C 1070.8974,346.52799 1102.4977,342.90886 1121.1859,325.08326 C 1131.4755,315.26866 1135.4746,304.42045 1135.4984,286.20826 C 1135.5542,243.36528 1107.0255,224.30808 1049.2484,228.61451 C 1034.3512,229.72488 1019.7829,231.63087 983.15466,237.23951 C 962.90545,240.34014 942.45271,241.4345 936.24841,239.73951 C 930.03152,238.04111 926.15466,233.89932 926.15466,228.95826 C 926.15465,223.5667 929.80136,220.27665 938.15466,218.11451 C 943.91857,216.62259 947.83176,216.51208 973.15466,217.30201 C 1020.0442,218.76471 1056.0321,218.41959 1066.9672,216.39576 C 1100.0971,210.26416 1115.7073,196.955 1119.9047,171.27076 C 1121.3218,162.5995 1121.344,160.79351 1119.9359,152.17701 C 1119.0279,146.62133 1117.2397,140.35404 1115.6547,137.11451 C 1109.7391,125.0235 1096.787,115.7985 1079.8734,111.61451 C 1067.6868,108.59988 1046.349,108.00773 1028.6547,110.17701 C 1003.2942,113.28616 1000.6244,113.28796 990.06091,110.14576 C 983.60347,108.22491 977.67015,107.32639 972.27966,107.42701 z M 978.68591,116.83326 C 979.20534,116.814 979.72006,116.81585 980.21716,116.86451 C 984.64167,117.29761 984.92886,119.01172 980.84216,120.48951 C 976.26185,122.14576 971.15466,122.07103 971.15466,120.33326 C 971.15465,118.66927 975.04988,116.9681 978.68591,116.83326 z " id="path2246"/>
  </g>
</svg>