<?xml version="1.0" encoding="UTF-8" standalone="no"?>
<svg xmlns:dc="http://purl.org/dc/elements/1.1/" xmlns:cc="http://creativecommons.org/ns#" xmlns:rdf="http://www.w3.org/1999/02/22-rdf-syntax-ns#" xmlns:svg="http://www.w3.org/2000/svg" xmlns="http://www.w3.org/2000/svg" xmlns:xlink="http://www.w3.org/1999/xlink" xmlns:sodipodi="http://sodipodi.sourceforge.net/DTD/sodipodi-0.dtd" xmlns:inkscape="http://www.inkscape.org/namespaces/inkscape" width="600" height="660" viewBox="-300 -300 600 660" id="svg3765" version="1.1" inkscape:version="0.48.3.1 r9886" sodipodi:docname="Blason_Mordor.svg">
  <metadata id="metadata3792">
    <rdf:RDF>
      <cc:Work rdf:about="">
        <dc:format>image/svg+xml</dc:format>
        <dc:type rdf:resource="http://purl.org/dc/dcmitype/StillImage"/>
        <dc:title/>
      </cc:Work>
    </rdf:RDF>
  </metadata>
  <sodipodi:namedview pagecolor="#ffffff" bordercolor="#666666" borderopacity="1" objecttolerance="10" gridtolerance="10" guidetolerance="10" inkscape:pageopacity="0" inkscape:pageshadow="2" inkscape:window-width="902" inkscape:window-height="491" id="namedview3790" showgrid="false" inkscape:zoom="0.35757576" inkscape:cx="405.15764" inkscape:cy="384.1759" inkscape:window-x="-8" inkscape:window-y="-8" inkscape:window-maximized="1" inkscape:current-layer="layer3"/>
  <defs id="defs3767">
    <radialGradient id="Gradient1" gradientUnits="userSpaceOnUse" cx="-80" cy="-80" r="405">
      <stop style="stop-color:#fff;stop-opacity:0.31" offset="0" id="stop3770"/>
      <stop style="stop-color:#fff;stop-opacity:0.25" offset="0.19" id="stop3772"/>
      <stop style="stop-color:#6b6b6b;stop-opacity:0.125" offset="0.6" id="stop3774"/>
      <stop style="stop-color:#000;stop-opacity:0.125" offset="1" id="stop3776"/>
    </radialGradient>
    <clipPath id="shield_cut">
      <path id="shield" d="M-298.5,-298.5 h597 v258.5 C 298.5,246.2 0,358.39 0,358.39 0,358.39 -298.5,246.2 -298.5,-40z"/>
    </clipPath>
  </defs>
  <g id="layer4" inkscape:label="Fond écu" inkscape:groupmode="layer">
    <use xlink:href="#shield" fill="#e20909" id="use3781" style="fill:#000000"/>
  </g>
  <g id="layer3" inkscape:label="Meubles" inkscape:groupmode="layer">
    <path style="fill:#ffffff;stroke:#000000;stroke-width:2.72255087;stroke-miterlimit:4;stroke-opacity:1;stroke-dasharray:none" d="m 20.438465,-231.93994 c -1.545466,0.0721 -3.124357,0.38086 -4.662577,0.97135 -8.935678,3.42896 -10.0766,10.14851 -7.188101,42.9344 1.880594,21.34547 3.712724,40.9528 3.885495,43.51718 0.591945,8.78624 17.593522,4.59606 21.370053,-5.24536 5.657899,-14.74434 4.330577,-66.63625 -1.942765,-76.54365 -2.396861,-3.78545 -6.825758,-5.85013 -11.462105,-5.63392 z m 107.044555,36.13481 c -10.30923,0 -16.21286,18.17333 -18.26168,56.14498 -0.87554,16.22703 -6.28304,35.95684 -11.850675,43.905755 -5.567591,7.948885 -10.102186,25.235497 -10.102186,38.271825 0,13.036336 -3.789846,29.921843 -8.548027,37.494744 -4.758173,7.572945 -10.532315,27.081703 -12.822033,43.32295 -5.107652,36.228783 1.714571,37.510821 24.478427,4.662535 13.377024,-19.303024 16.430874,-29.595547 13.793384,-45.848482 -2.36792,-14.59181 0.27219,-26.301006 8.54803,-38.854664 6.52147,-9.892281 11.82831,-28.632108 11.85068,-41.574473 0.0227,-12.94232 3.83173,-29.72751 8.54803,-37.30045 10.42651,-16.7419 6.38043,-60.22472 -5.63395,-60.22472 z m -223.802793,12.43351 c -11.760587,0 -11.661497,19.222 0.19429,47.59692 5.1288,12.27502 9.3251,29.5811 9.3251,38.660391 0,9.079282 3.84781,22.008016 8.54802,28.752435 4.70026,6.744419 10.668095,25.022407 13.2106,40.408864 2.542506,15.386415 8.59254,35.668538 13.404833,45.071399 10.599252,20.709954 20.419843,22.119922 21.758617,3.108368 1.847126,-26.230535 -1.160978,-39.015339 -13.404835,-55.75642 -8.474109,-11.586648 -11.040391,-22.118929 -8.548019,-34.58066 2.211141,-11.055793 0.269459,-21.395552 -4.856855,-26.809705 -22.557711,-23.824122 -25.575141,-30.391242 -18.067411,-39.437462 9.170542,-11.04982 -7.33569,-47.01413 -21.56434,-47.01413 z m 118.312439,68.38418 c -5.39441,0.72777 -9.720415,4.03118 -10.102229,7.77094 -0.436566,4.27402 -1.588261,14.764759 -2.719804,23.312787 -4.098161,30.958367 -4.202595,66.410929 0,79.652006 6.141971,19.351697 26.129366,17.211072 31.277956,-3.302605 2.31028,-9.205411 2.341483,-37.180763 0,-62.167447 -3.638951,-38.833201 -5.926762,-45.265681 -15.9304,-45.265681 -0.804568,0 -1.754919,-0.1037 -2.525523,0 z M 208.495,-71.470241 c -4.43397,-0.722968 -13.28347,8.504676 -25.44983,26.421194 -9.86783,14.531613 -20.16556,27.224132 -22.72998,28.36387 -2.56438,1.139738 -4.66254,10.263174 -4.66254,20.204407 0,13.81577 -4.99185,21.319838 -21.56433,32.055083 C 118.04108,45.969328 112.3869,54.199028 112.3297,66.852323 112.24,86.72835 98.100007,89.57763 76.194886,74.23469 68.595676,68.911975 62.401487,66.626611 62.401487,69.183606 c 0,2.556994 -3.879424,-0.745243 -8.742301,-7.382381 -12.968399,-17.700037 -70.974052,-14.955048 -98.496535,4.662534 -13.390523,9.544601 -28.875394,14.370031 -46.431324,14.376231 -23.000797,0.009 -29.248507,-3.1709 -48.179767,-24.86698 -11.93391,-13.676824 -21.69268,-28.288603 -21.75858,-32.443603 -0.14536,-9.209348 -36.52205,-51.482417 -44.29431,-51.482417 -17.67453,0 5.7025,59.982756 36.13487,92.668321 10.8922,11.698689 18.34886,23.645229 16.51319,26.615429 -1.83576,2.97023 4.09902,11.2888 13.21054,18.45598 10.73852,8.44694 15.55634,17.18842 13.59917,24.67269 -7.00052,26.76982 60.580989,86.09532 78.097842,68.57847 5.991025,-5.99103 5.758434,-10.24475 -0.582845,-20.3987 -8.609975,-13.78682 -6.024084,-21.87809 4.856852,-15.15332 3.646703,2.2538 6.605298,10.40502 6.605298,18.06741 0,16.55301 10.851236,28.94671 25.449785,28.94671 5.788774,0 12.26468803,4.40539 14.376244,9.90796 3.022047,7.87537 8.869744,9.03589 27.003952,5.63393 29.625382,-5.55777 55.050217,-23.87036 67.801379,-48.76261 5.554313,-10.84285 13.169873,-21.69037 16.901753,-24.08986 3.73188,-2.39949 7.23977,-17.24668 7.77095,-33.02645 0.72151,-21.43441 5.63099,-34.57024 19.23306,-51.6767 18.77781,-23.615743 70.13266,-123.80756 70.13266,-136.768348 0,-4.458246 -1.09296,-6.859496 -3.10837,-7.188143 z M -77.863793,102.59862 c 1.50778,0 4.49211,2.79752 6.60529,6.21673 2.11319,3.41921 0.90117,6.21673 -2.71985,6.21673 -3.62097,0 -6.60529,-2.79752 -6.60529,-6.21673 0,-3.41921 1.21201,-6.21673 2.71985,-6.21673 z m 45.265676,6.99381 c 3.61273,-0.81575 11.356278,5.19048 23.507064,17.87317 20.899881,21.81477 39.584825,23.6134 54.979303,5.63389 13.208324,-15.42617 23.962737,-13.21567 26.809705,5.43966 1.538265,10.07958 -1.032499,13.79339 -9.907904,13.79339 -6.615165,0 -13.817217,2.79756 -15.930444,6.21678 -4.797301,7.7622 -37.475264,6.92417 -62.167438,-1.5542 -10.25761,-3.52211 -22.846512,-7.94154 -27.975317,-9.71367 -7.437172,-2.56973 -6.965372,-3.67092 2.137011,-5.82821 8.601457,-2.03856 10.410813,-6.38671 7.576655,-17.67886 -2.202988,-8.77739 -1.838557,-13.54747 0.971365,-14.18195 z" id="path3843" inkscape:connector-curvature="0"/>
  </g>
  <g id="layer2" inkscape:label="Reflet final" inkscape:groupmode="layer" sodipodi:insensitive="true">
    <use xlink:href="#shield" fill="url(#Gradient1)" id="use3785"/>
  </g>
  <g id="layer1" inkscape:label="Contour final" inkscape:groupmode="layer" sodipodi:insensitive="true">
    <use xlink:href="#shield" style="fill:none;stroke:#000;stroke-width:3" id="use3788"/>
  </g>
</svg>