<?xml version="1.0" encoding="UTF-8" standalone="no"?>
<svg xmlns:dc="http://purl.org/dc/elements/1.1/" xmlns:cc="http://creativecommons.org/ns#" xmlns:rdf="http://www.w3.org/1999/02/22-rdf-syntax-ns#" xmlns:svg="http://www.w3.org/2000/svg" xmlns="http://www.w3.org/2000/svg" xmlns:xlink="http://www.w3.org/1999/xlink" xmlns:sodipodi="http://sodipodi.sourceforge.net/DTD/sodipodi-0.dtd" xmlns:inkscape="http://www.inkscape.org/namespaces/inkscape" width="600" height="660" viewBox="-300 -300 600 660" id="svg3765" version="1.1" inkscape:version="0.48.3.1 r9886" sodipodi:docname="Blason_Vide_3D.svg">
  <metadata id="metadata3792">
    <rdf:RDF>
      <cc:Work rdf:about="">
        <dc:format>image/svg+xml</dc:format>
        <dc:type rdf:resource="http://purl.org/dc/dcmitype/StillImage"/>
        <dc:title/>
      </cc:Work>
    </rdf:RDF>
  </metadata>
  <sodipodi:namedview pagecolor="#ffffff" bordercolor="#666666" borderopacity="1" objecttolerance="10" gridtolerance="10" guidetolerance="10" inkscape:pageopacity="0" inkscape:pageshadow="2" inkscape:window-width="902" inkscape:window-height="491" id="namedview3790" showgrid="false" inkscape:zoom="0.35757576" inkscape:cx="494.64916" inkscape:cy="384.1759" inkscape:window-x="-8" inkscape:window-y="-8" inkscape:window-maximized="1" inkscape:current-layer="layer3"/>
  <defs id="defs3767">
    <radialGradient id="Gradient1" gradientUnits="userSpaceOnUse" cx="-80" cy="-80" r="405">
      <stop style="stop-color:#fff;stop-opacity:0.31" offset="0" id="stop3770"/>
      <stop style="stop-color:#fff;stop-opacity:0.25" offset="0.19" id="stop3772"/>
      <stop style="stop-color:#6b6b6b;stop-opacity:0.125" offset="0.6" id="stop3774"/>
      <stop style="stop-color:#000;stop-opacity:0.125" offset="1" id="stop3776"/>
    </radialGradient>
    <clipPath id="shield_cut">
      <path id="shield" d="M-298.5,-298.5 h597 v258.5 C 298.5,246.2 0,358.39 0,358.39 0,358.39 -298.5,246.2 -298.5,-40z"/>
    </clipPath>
  </defs>
  <g id="layer4" inkscape:label="Fond écu" inkscape:groupmode="layer">
    <use xlink:href="#shield" fill="#e20909" id="use3781" style="fill:#000000"/>
  </g>
  <g id="layer3" inkscape:label="Meubles" inkscape:groupmode="layer">
    <path style="fill:#e20909;fill-opacity:1;stroke:#000000;stroke-width:2.47464466;stroke-miterlimit:4;stroke-opacity:1;stroke-dasharray:none" d="m -33.884515,161.70396 c -5.716488,-1.97436 -14.533252,-8.04297 -19.84508,-13.65943 -4.331122,-4.57953 -4.864674,-5.96284 -3.374138,-8.74793 1.502772,-2.80796 3.813142,-1.83702 7.724715,3.24636 13.02418,16.92589 23.86672,18.22442 30.350297,3.63481 7.570005,-17.03435 -5.455561,-45.75743 -30.680097,-67.65358 -12.111508,-10.5134 -18.439296,-10.99755 -31.458812,-2.40695 -1.976985,1.30445 -2.293705,1.31725 -3.470698,0.14026 -0.712353,-0.71234 -1.110595,-1.77622 -0.884981,-2.36416 0.60653,-1.58058 7.208843,-6.41786 16.449015,-12.05162 9.090733,-5.542657 11.593496,-6.031788 16.930748,-3.30893 4.406505,2.24804 13.841039,11.84467 21.49956,21.86896 12.252849,16.03785 18.371813,27.00802 21.8733034,39.21481 1.807975,6.30294 2.09402,8.69789 1.811176,15.16473 -0.300488,6.87054 -0.665664,8.34698 -3.4658404,14.01274 -6.65281,13.46105 -12.518006,16.68875 -23.459168,12.90993 z m 56.352831,0.964 c -4.659055,-1.16655 -11.011377,-9.44039 -14.1020846,-18.36784 -2.241953,-6.47586 -2.065519,-17.43996 0.410923,-25.5358 4.6480336,-15.19511 19.0396446,-37.32809 33.8312316,-52.02937 7.413549,-7.36828 11.386508,-9.872287 15.663783,-9.872287 4.525259,0 27.299583,14.826817 27.299583,17.772917 0,2.49924 -2.67152,2.15698 -9.16974,-1.17479 -10.680724,-5.47624 -16.185276,-4.33539 -27.375288,5.67368 -15.236776,13.62874 -27.326843,31.19117 -30.797086,44.73685 -1.817966,7.09621 -1.243245,18.78443 1.150305,23.39398 2.045178,3.93866 6.758255,8.33413 9.73833,9.08208 5.163907,1.29606 14.277569,-5.18751 20.974948,-14.92181 3.522409,-5.11966 7.432562,-4.79418 7.432562,0.61867 0,4.51988 -13.614019,15.80531 -23.551993,19.52358 -4.374587,1.63674 -7.983906,1.98186 -11.505474,1.10014 z M -108.33042,118.50494 c -10.82922,-9.40292 -15.50125,-25.96708 -11.9468,-42.35608 2.32144,-10.70377 8.88148,-29.184776 10.35947,-29.184776 3.50789,0 21.632298,2.609051 25.941847,3.734395 4.784992,1.24949 6.031977,1.783971 5.327486,2.283462 -0.189035,0.134027 -2.524657,1.711614 -5.190261,3.505747 -6.959366,4.684112 -16.951642,15.571592 -20.485852,22.321132 -6.6879,12.77239 -7.20298,21.34931 -1.93134,32.16021 1.66678,3.41819 2.91077,6.83663 2.76443,7.59652 -0.3941,2.04639 -2.44192,2.02074 -4.83898,-0.0607 z m 211.70662,0.51993 c -0.30165,-0.78607 0.66983,-3.65181 2.31685,-6.83446 3.53593,-6.8327 4.59046,-12.34069 3.66222,-19.12822 -1.76812,-12.92876 -14.809258,-30.72917 -28.004078,-38.223959 -3.043696,-1.728853 -3.241099,-2.020854 -1.86062,-2.752243 2.01364,-1.066836 12.90009,-3.209317 21.732298,-4.276961 9.68052,-1.170194 10.7438,-1.111001 10.75217,0.598599 0.004,0.793949 1.48172,5.619796 3.28405,10.724114 4.66394,13.20861 6.89366,24.70098 6.20147,31.96352 -0.99145,10.40243 -4.75412,18.72524 -11.84029,26.18999 -3.13698,3.30458 -5.40144,3.93547 -6.24407,1.73962 z m -313.90174,-15.25821 c -5.61832,-0.9314 -12.01564,-3.8163 -15.76741,-7.11041 -8.03317,-7.05322 -9.83583,-22.40843 -3.81049,-32.45827 4.94767,-8.252371 12.64611,-12.43471 34.80301,-18.907485 6.35159,-1.855505 13.96112,-4.434588 16.91007,-5.731285 12.95999,-5.698711 21.64457,-7.747247 32.99527,-7.783014 7.74152,-0.02442 10.48798,0.312531 14.93353,1.831963 2.99608,1.024025 6.14755,2.373803 7.00325,2.999518 1.47671,1.079794 1.43039,1.189033 -0.91055,2.147381 -8.59991,3.520685 -16.528,7.800247 -22.26356,12.017784 l -6.59905,4.852498 -15.67275,-0.261141 c -27.32093,-0.455235 -42.77639,4.168311 -49.28258,14.743031 -6.2889,10.22154 -2.53964,21.12419 8.43404,24.52576 5.95101,1.84466 28.56285,1.78408 42.06127,-0.1127 10.25088,-1.44043 11.6577,-1.12835 10.12064,2.24515 -0.75917,1.66619 -2.13541,2.28702 -8.18519,3.69231 -14.93248,3.46866 -34.90253,4.94465 -44.7695,3.30891 z m 394.05067,-0.26004 c -9.69901,-1.23205 -20.95296,-3.36842 -24.15289,-4.58504 -1.54517,-0.58747 -2.03578,-1.3753 -2.03578,-3.26906 0,-1.37228 0.27839,-2.4833 0.61865,-2.46894 0.34026,0.0143 4.51624,0.56875 9.27992,1.23195 14.5721,2.02871 31.59827,2.42725 38.70713,0.90606 10.67705,-2.28473 15.02801,-6.62088 15.02801,-14.97684 0,-11.21563 -8.23699,-18.98731 -24.62186,-23.23096 -4.52395,-1.171695 -9.30387,-1.463653 -24.79846,-1.514705 l -19.19429,-0.06327 -3.48995,-2.890362 c -6.90348,-5.717424 -18.22776,-12.114632 -24.01758,-13.567784 -3.56093,-0.893743 -3.19962,-1.689391 1.77798,-3.915399 12.97705,-5.803414 30.21044,-4.667956 48.52188,3.196969 3.79288,1.629066 13.10238,4.810758 20.68778,7.070422 16.87847,5.028027 24.50441,8.466382 29.83367,13.451279 5.48526,5.13082 7.74842,10.50526 7.82777,18.58909 0.0335,3.4107 -0.43743,7.68604 -1.0465,9.50079 -2.48973,7.41835 -8.78161,13.09863 -17.37245,15.68378 -6.1257,1.84334 -20.65946,2.23579 -31.55303,0.85199 z M -3.3967196,75.86984 C -8.5379346,66.72229 -18.459957,57.498944 -29.142413,51.937072 -40.531686,46.007196 -52.045018,42.552409 -71.971512,39.085406 -100.22581,34.169442 -102.17777,33.50467 -122.19078,21.982278 -144.45863,9.161672 -151.41861,6.944251 -167.25445,7.625174 c -16.0239,0.689015 -26.83648,4.634333 -45.36191,16.551759 -13.84916,8.909167 -17.54319,10.596768 -23.05153,10.530975 -7.53534,-0.09 -12.99534,-3.890471 -17.07333,-11.883995 -3.68421,-7.22164 -5.23187,-16.459637 -2.90699,-17.35178 1.83225,-0.703095 2.78024,0.405883 6.22342,7.280265 1.81215,3.61798 4.63713,7.877339 6.27775,9.465236 2.50214,2.421744 3.54056,2.871858 6.44249,2.792612 7.31273,-0.199697 15.02415,-5.477808 28.58306,-19.563782 6.99474,-7.266639 13.5177,-11.007914 20.95117,-12.016661 2.55981,-0.347375 4.80408,-0.786558 4.98726,-0.975968 0.1832,-0.189409 0.46189,-2.938063 0.61934,-6.108124 l 0.28627,-5.763744 -3.76198,-0.538367 c -7.6199,-1.090444 -17.04394,-7.092341 -37.73814,-24.034259 -6.94608,-5.68664 -13.31789,-10.519422 -14.15955,-10.739522 -4.04621,-1.0581 -8.26504,4.413352 -8.26736,10.722052 -8.4e-4,2.67527 -0.39645,3.6882 -1.7155,4.39414 -0.94282,0.50458 -2.19515,0.73288 -2.78294,0.50732 -2.9598,-1.13578 -1.54591,-12.87806 2.21296,-18.378672 2.4333,-3.56082 4.47761,-4.64982 8.5744,-4.56758 4.46873,0.0897 7.66343,1.44395 16.93412,7.17858 12.55057,7.763472 46.76504,20.800225 55.42534,21.118746 6.67828,0.245618 21.05169,-5.163574 38.48352,-14.482664 19.94057,-10.660242 37.390787,-16.399712 65.578096,-21.568962 8.620006,-1.58083 18.412919,-3.62045 21.76203,-4.53249 17.14288,-4.66843 28.320298,-14.25467 36.5513954,-31.348079 1.953279,-4.05634 3.82508297,-7.37515 4.15957297,-7.37515 0.334489,0 1.90144303,2.72531 3.48210503,6.05625 6.7155346,14.151639 14.9821346,23.123909 26.2705806,28.513189 7.362943,3.51518 14.40961,5.39455 32.728002,8.72864 28.60246,5.20587 42.202978,9.70952 67.084498,22.214272 19.13283,9.615618 30.58668,13.928765 36.6647,13.806765 1.98057,-0.03976 6.45536,-0.871646 9.94399,-1.848652 9.00976,-2.523234 37.44184,-14.178084 42.95131,-17.606565 18.3628,-11.42698 24.64416,-11.78902 29.67043,-1.71014 2.62573,5.265221 3.38475,13.581542 1.39063,15.236521 -2.10987,1.751029 -4.01924,0.0829 -4.78926,-4.184149 -1.19124,-6.601221 -1.45497,-7.368501 -3.09723,-9.010772 -0.89584,-0.89582 -2.68851,-1.62878 -3.98375,-1.62878 -2.48384,0 -4.40116,1.36263 -22.13438,15.730711 -16.09974,13.044573 -25.4374,18.498154 -32.69103,19.092934 l -2.32576,0.190705 0.26356,6.208174 0.26355,6.208175 4.97402,0.548802 c 9.19357,1.014357 13.49544,3.661863 25.03989,15.410346 10.64543,10.833566 16.64493,14.960243 23.66413,16.27705 5.17953,0.971686 10.15062,-3.673321 14.76942,-13.800623 2.54455,-5.57926 4.05086,-7.094823 5.69519,-5.730147 2.54209,2.109741 -0.38698,13.434194 -5.35947,20.721034 -4.6455,6.807632 -11.01513,9.714836 -17.90302,8.171235 C 227.87631,33.484493 222.7169,30.823459 212.39081,24.134321 194.50649,12.549032 182.99482,8.299415 167.62195,7.607579 151.50081,6.882063 144.2743,9.241083 120.23081,23.077886 103.54271,32.681735 98.039052,34.604996 76.889021,38.223768 57.621734,41.520398 47.859516,43.928385 38.190765,47.769218 23.282211,53.69153 12.343752,62.23334 4.6271254,73.97896 c -1.951826,2.97091 -3.98072103,5.15551 -4.78804903,5.15551 -0.77298,0 -2.22344297,-1.46338 -3.23579597,-3.26463 z M 14.434943,9.019528 c 1.396384,-3.402636 4.745626,-11.015782 7.44275,-16.91809 l 4.903871,-10.731487 -8.551119,-17.278652 c -6.718578,-13.575768 -9.6522436,-20.68272 -13.6892716,-33.16291 -2.825987,-8.73634 -5.38690503,-15.43401 -5.690924,-14.8837 -0.304018,0.5503 -2.784222,7.31089 -5.511554,15.02353 -5.8203564,16.4594 -11.2526224,30.969922 -15.3587584,41.025922 -1.618269,3.963177 -2.942312,7.819424 -2.942312,8.569439 0,0.750016 4.222338,13.468873 9.382971,28.264131 5.160632,14.795258 10.5960994,30.587186 12.0788144,35.093176 l 2.69584597,8.19271 L 5.5456564,33.709868 C 9.0383774,23.532817 13.038558,12.422165 14.434943,9.019528 z M -158.18076,-58.207591 c -6.97776,-5.973 -12.12682,-7.76472 -42.89384,-14.9257 -23.29714,-5.42237 -34.91898,-16.64746 -34.08168,-32.918159 0.5471,-10.63149 5.51805,-17.04435 15.45007,-19.93168 5.9882,-1.74081 27.82533,-1.11808 47.07824,1.34253 13.10941,1.67545 16.09279,2.46936 14.04208,3.73677 -1.43402,0.88627 -16.31462,1.87593 -36.52182,2.42896 -22.26014,0.6092 -27.18242,1.91852 -31.11125,8.27551 -2.07478,3.35706 -2.09486,5.43875 -0.0901,9.33627 4.94156,9.606929 15.34043,13.616359 37.64236,14.513549 28.93701,1.16413 49.52876,6.97706 65.05342,18.3642 3.02547,2.21915 3.75248,3.13311 2.88044,3.62112 -1.55911,0.87251 -31.48927,9.05145 -32.97873,9.01201 -0.64334,-0.017 -2.65447,-1.30195 -4.46922,-2.85538 z m 294.27668,-1.57266 c -8.73333,-2.38666 -16.05452,-4.51512 -16.2693,-4.72989 -0.48887,-0.48887 6.12122,-5.40105 11.30582,-8.40174 5.56364,-3.22007 17.56131,-7.7114 25.61713,-9.58978 9.23337,-2.15294 18.13531,-3.19975 34.87402,-4.10097 15.89771,-0.85594 20.27415,-1.91621 27.31413,-6.61732 5.5213,-3.68698 8.51366,-8.198079 8.51366,-12.834639 0,-5.83303 -8.78099,-11.78681 -17.82186,-12.08376 -37.24254,-1.22326 -46.51115,-1.68009 -49.29444,-2.42954 -2.58527,-0.69615 -3.04609,-1.06416 -2.03855,-1.62801 2.48932,-1.39309 28.41243,-4.21407 42.79899,-4.65743 16.85408,-0.51939 21.35415,0.33315 26.92415,5.10087 5.15896,4.41587 7.24008,9.38001 7.18925,17.14866 -0.037,5.659729 -0.37498,7.038149 -2.9324,11.960789 -3.51259,6.76115 -9.89958,12.28313 -17.92917,15.50096 -3.00069,1.20251 -13.13021,3.98339 -22.51003,6.17972 -19.29725,4.51856 -27.79069,7.6965 -33.12948,12.39589 -2.02771,1.78486 -4.37218,3.21829 -5.20993,3.18539 -0.83775,-0.0329 -8.66865,-2.01253 -17.40199,-4.3992 z m -248.6022,-10.27694 c -0.0586,-0.74208 -0.0303,-3.03282 0.0628,-5.09053 0.10182,-2.25073 -1.21037,-8.98787 -3.29352,-16.91007 -5.33915,-20.304769 -5.24243,-29.106149 0.45216,-41.143519 2.81259,-5.94533 8.24711,-12.03201 10.74284,-12.03201 3.22998,0 3.16683,1.48253 -0.29149,6.84325 -4.29527,6.65805 -5.87006,10.61737 -6.45718,16.2346 -0.61278,5.86272 1.35834,13.78657 4.90201,19.70593 4.69183,7.837269 16.60612,17.022449 24.140817,18.611079 2.07822,0.43817 2.67154,1.10463 3.394417,3.81287 0.807651,3.02589 0.739894,3.3118 -0.868659,3.66549 -0.959561,0.21099 -6.128473,1.3427 -11.486475,2.5149 -5.358001,1.17221 -12.31793,2.80763 -15.46652,3.63427 -5.24314,1.37653 -5.73368,1.38947 -5.83117,0.15374 z m 218.70007,-0.19751 c -2.94894,-0.85161 -10.187278,-2.54165 -16.085188,-3.75565 -5.8979,-1.214 -10.992706,-2.43335 -11.321784,-2.70967 -0.329078,-0.27631 -0.184345,-1.85127 0.321638,-3.49991 0.785646,-2.55988 1.436046,-3.142 4.454796,-3.9872 8.86614,-2.48237 21.894808,-14.36443 25.184078,-22.967729 4.00193,-10.46729 2.79902,-20.97678 -3.52002,-30.75355 -3.81839,-5.9078 -3.97657,-7.30491 -0.82706,-7.30491 2.64915,0 4.36745,1.63895 8.64814,8.24882 4.53699,7.00561 6.53678,13.9411 6.54083,22.68424 0.002,6.18846 -0.63806,9.88312 -3.85131,22.201289 -3.24015,12.42134 -3.76706,15.47907 -3.30485,19.17851 0.30243,2.42061 0.22872,4.35905 -0.16383,4.30762 -0.39254,-0.0514 -3.12649,-0.79026 -6.07544,-1.64186 z m -167.021912,-11.65982 c -5.783421,-2.09806 -18.334917,-9.84173 -23.965989,-14.78588 -3.007908,-2.64097 -3.842212,-6.138549 -1.663677,-6.974529 0.657569,-0.25233 3.712131,0.7801 6.787925,2.29431 5.154869,2.537729 6.206712,2.752839 13.446059,2.749769 11.053675,-0.005 14.110837,-1.791289 24.658361,-14.410419 13.704186,-16.39579 18.556346,-24.33479 21.219543,-34.71892 2.896093,-11.29225 0.04562,-24.36595 -6.238341,-28.61241 -6.600793,-4.46055 -13.676759,-0.91973 -24.937855,12.47891 -1.490654,1.77363 -2.433306,2.23513 -3.726807,1.8246 -3.366993,-1.06865 -2.794487,-2.8536 3.038252,-9.47279 8.872103,-10.06835 17.954397,-15.78998 24.988703,-15.74228 6.706996,0.0455 13.858662,6.09487 17.160506,14.51561 3.8068704,9.70873 2.0650004,29.75337 -3.575548,41.14578 -6.490061,13.10818 -29.186519,41.977949 -38.048611,48.397619 -3.426718,2.4823 -5.208604,2.73774 -9.142521,1.31063 z m 113.404616,-0.73582 c -8.316035,-5.04537 -30.962582,-33.274149 -37.964631,-47.322659 -4.456496,-8.94127 -6.6261166,-17.89722 -6.7101876,-27.69886 -0.108703,-12.67334 3.6999476,-22.10648 10.8308596,-26.82549 8.731743,-5.7784 17.885487,-2.66932 30.750653,10.44446 4.423427,4.50892 8.042595,8.68047 8.042595,9.27013 0,1.50656 -1.718632,3.05181 -3.394247,3.05181 -0.777996,0 -2.754866,-1.8259 -4.393047,-4.05755 -14.309146,-19.49296 -30.623077,-14.67145 -30.4753,9.00684 0.05337,8.55153 2.489567,16.1288 8.025818,24.96253 4.699845,7.49918 13.355707,18.33105 20.362317,25.48122 4.52243,4.61512 6.165495,5.72287 10.249179,6.910029 7.02691,2.04278 14.321784,1.34757 21.740369,-2.071879 6.02109,-2.7753 8.40553,-2.83557 8.40553,-0.21248 0,3.310319 -12.645575,12.947419 -24.099401,18.365979 -6.164572,2.91633 -7.56904,3.00229 -11.370507,0.69592 z" id="path2995" inkscape:connector-curvature="0"/>
  </g>
  <g id="layer2" inkscape:label="Reflet final" inkscape:groupmode="layer" sodipodi:insensitive="true">
    <use xlink:href="#shield" fill="url(#Gradient1)" id="use3785"/>
  </g>
  <g id="layer1" inkscape:label="Contour final" inkscape:groupmode="layer" sodipodi:insensitive="true">
    <use xlink:href="#shield" style="fill:none;stroke:#000;stroke-width:3" id="use3788"/>
  </g>
</svg>