<svg xmlns="http://www.w3.org/2000/svg" width="151" height="141" fill="none"><g clip-path="url('#clip0_5_68')"><path fill="#fff" d="M.697 100.113q.017.083.05.16l.03.1 11.409 19.757.03.03c.02.03.04.06.07.1a.7.7 0 0 0 .13.11c.03.02.05.05.08.07a.06.06 0 0 0 .04.01c.113.064.24.098.37.1h45.133l11.168 19.337.03.03c.02.03.04.06.07.1a.7.7 0 0 0 .13.11c.03.02.05.05.08.07a.06.06 0 0 0 .04.01q.173.097.37.1h68.44a.8.8 0 0 0 .38-.1l.09-.06a.9.9 0 0 0 .22-.21c.01-.02.04-.03.05-.05l11.408-19.757c.01-.02.01-.03.02-.05a.4.4 0 0 0 .04-.1l.03-.11a.4.4 0 0 0 .01-.11c0-.02.01-.03.01-.05s-.01-.03-.01-.05c0-.04-.01-.07-.01-.11s-.02-.07-.03-.11a1 1 0 0 0-.04-.1c-.01-.02-.01-.03-.02-.05l-22.566-39.084 11.158-19.337c.01-.02.01-.03.02-.05a.4.4 0 0 0 .04-.1l.03-.11a.4.4 0 0 0 .01-.11c0-.02.01-.03.01-.05s-.01-.03-.01-.05c0-.04-.01-.07-.01-.11s-.02-.07-.03-.11a1 1 0 0 0-.04-.1c-.01-.02-.01-.03-.02-.05L104.902.748c-.02-.03-.05-.05-.07-.08a2 2 0 0 0-.11-.13 1 1 0 0 0-.13-.09.6.6 0 0 0-.14-.07 1 1 0 0 0-.18-.04c-.03 0-.06-.02-.1-.02H81.356c-.02 0-.03.01-.05.01-.04 0-.07.01-.11.01l-.12.03c-.03.01-.07.03-.1.04s-.03.01-.05.02a.1.1 0 0 1-.04.03.6.6 0 0 0-.09.07.6.6 0 0 0-.08.08c-.02.03-.05.06-.07.09a.1.1 0 0 0-.03.04L58.049 39.832H35.732c-.02 0-.03.01-.05.01-.04 0-.07.01-.11.01s-.08.02-.11.03a1 1 0 0 0-.1.04c-.02.01-.03.01-.05.02s-.02.02-.04.03a.6.6 0 0 0-.09.07.6.6 0 0 0-.08.08c-.02.03-.05.06-.07.09a.1.1 0 0 0-.03.04L.787 99.533a.4.4 0 0 0-.03.1 1 1 0 0 0-.05.16.5.5 0 0 0-.02.16 1 1 0 0 0 .01.16M103.682 2.018l33.245 57.581h-20.856L82.815 2.018zm11.409 97.095H94.224L116.06 61.28h20.866zM81.356 2.858 114.6 60.439 92.764 98.274 82.336 80.196 93.504 60.86c.01-.02.01-.03.02-.05a.4.4 0 0 0 .04-.1l.03-.11a.4.4 0 0 0 .01-.11c0-.02.01-.03.01-.05s-.01-.03-.01-.05c0-.04-.01-.07-.01-.11s-.02-.07-.03-.11a1 1 0 0 0-.04-.1c-.01-.02-.01-.03-.02-.05L82.085 40.262c-.02-.03-.05-.05-.07-.08a2 2 0 0 0-.11-.13 1 1 0 0 0-.27-.16.5.5 0 0 0-.17-.03c-.03 0-.07-.02-.1-.02H60.01zM58.549 41.532h22.327l10.438 18.067H47.631L37.192 41.532zm-22.817.84 10.429 18.067-33.245 57.582L2.487 99.953zM14.385 118.86l33.246-57.581h43.683L80.876 79.356H58.549c-.02 0-.03.01-.05.01-.04 0-.07.01-.11.01l-.12.03c-.03.01-.07.03-.1.04s-.03.01-.05.02a.1.1 0 0 1-.04.03.6.6 0 0 0-.09.07.6.6 0 0 0-.08.08c-.02.03-.05.06-.07.09-.01.01-.03.02-.03.04L46.401 99.533a.4.4 0 0 0-.03.1 1 1 0 0 0-.05.16 1 1 0 0 0-.01.16 1 1 0 0 0 .01.16q.015.083.05.16l.03.1 10.678 18.487zm123.522 19.758h-66.49l10.429-18.068h66.49zm-67.95-.84L48.121 99.953l10.438-18.077L80.396 119.7zm78.379-18.918h-66.49L60.009 81.036h20.867l11.168 19.337.03.03a.6.6 0 0 0 .2.21c.03.02.05.05.08.07a.06.06 0 0 0 .04.01c.113.063.24.098.37.1h22.817a.8.8 0 0 0 .38-.1l.09-.06a.9.9 0 0 0 .219-.21c.01-.02.04-.03.05-.05l10.679-18.497z"/></g><defs><clipPath id="clip0_5_68"><path fill="#fff" d="M.688.313h149.938v140H.688z"/></clipPath></defs></svg>