<svg xmlns="http://www.w3.org/2000/svg" width="140" height="123" fill="none"><g clip-path="url('#clip0_5_77')"><path fill="#fff" d="M.02 108.783a1 1 0 0 0 .05.15.3.3 0 0 0 .03.09l7.278 12.617.03.03q.03.05.07.09c.04.04.08.07.12.11.03.02.04.05.07.06a.06.06 0 0 0 .04.01.8.8 0 0 0 .35.09H131.89a.8.8 0 0 0 .35-.09c.03-.02.05-.04.08-.06a.6.6 0 0 0 .2-.2c.01-.02.03-.03.05-.05l7.288-12.617c.01-.01.01-.03.02-.04a.3.3 0 0 0 .04-.1l.03-.1a.4.4 0 0 0 .01-.1c0-.02.01-.03.01-.05s-.01-.03-.01-.05-.01-.07-.01-.1-.02-.07-.03-.1a1 1 0 0 0-.04-.1c-.01-.01-.01-.03-.02-.04L77.947.984a.4.4 0 0 0-.06-.07.6.6 0 0 0-.11-.12 1.6 1.6 0 0 0-.25-.15.8.8 0 0 0-.16-.03c-.03 0-.06-.02-.1-.02H62.702c-.02 0-.03.01-.05.01s-.07.01-.1.01l-.11.03a1 1 0 0 0-.1.04.06.06 0 0 1-.04.01.1.1 0 0 1-.04.03.6.6 0 0 0-.08.06.6.6 0 0 0-.08.08c-.02.03-.04.05-.06.08a.1.1 0 0 0-.03.04L.09 108.243a.3.3 0 0 0-.03.09 1 1 0 0 0-.05.15 1 1 0 0 0-.01.15c.01.05.01.1.02.15M76.817 2.164l61.012 105.679H31.281l6.378-11.038h79.686a.7.7 0 0 0 .35-.1c.01-.01.03 0 .04-.01a.4.4 0 0 0 .07-.06 1 1 0 0 0 .12-.11 1 1 0 0 0 .08-.12.3.3 0 0 0 .06-.13.4.4 0 0 0 .03-.16c0-.03.02-.06.02-.1 0-.02-.01-.03-.01-.05a1 1 0 0 0-.03-.15 1 1 0 0 0-.05-.15c-.01-.01-.01-.03-.02-.04L64.051 2.166zm54.634 118.297H9.427l53.275-92.282 6.378 11.038-39.849 69.016a.06.06 0 0 0-.01.04 1 1 0 0 0-.05.15 1 1 0 0 0-.03.15c0 .02-.01.03-.01.05s.02.06.02.1a1 1 0 0 0 .03.16c.02.05.04.09.06.13q.038.062.08.12c.04.04.08.07.12.11.03.02.04.05.07.06.01.01.03 0 .04.01a.8.8 0 0 0 .35.1H137.81zM101.41 95.236H38.559l31.43-54.44zM62.702 2.954l53.274 92.282H103.23L63.391 26.219a.1.1 0 0 1-.03-.04c-.03-.04-.07-.08-.1-.12a.6.6 0 0 0-.12-.1.1.1 0 0 0-.04-.03.3.3 0 0 0-.09-.03 1 1 0 0 0-.15-.05q-.15-.02-.3 0a1 1 0 0 0-.15.05.3.3 0 0 0-.09.03.1.1 0 0 1-.04.03c-.04.03-.08.07-.12.1a.4.4 0 0 0-.1.12.1.1 0 0 0-.03.04L8.079 119.681 1.7 108.643z"/></g><defs><clipPath id="clip0_5_77"><path fill="#fff" d="M0 .594h139.969v121.438H0z"/></clipPath></defs></svg>