<svg xmlns="http://www.w3.org/2000/svg" width="122" height="141" fill="none"><g clip-path="url('#clip0_5_86')"><path fill="#fff" d="m121.922 35.323-20.696-11.948-19.207 11.088V12.277L61.313.329 40.616 12.277v22.176L21.41 23.365.703 35.323V59.23L19.91 70.317.703 81.407v23.906L21.4 117.26l19.206-11.088v22.176l20.697 11.948 20.696-11.948v-22.176l19.207 11.088 20.716-11.948V81.406l-19.207-11.089 19.207-11.088zm-20.696-10.228 18.466 10.658L82.139 57.5l-.12-21.317zM80.529 37.043l.12 21.326-18.587 10.769V24.665L80.53 14.006zM42.106 14.006l18.457 10.659v44.473L42.106 58.449zM21.399 25.095l19.207 11.088v21.386L2.943 35.754zM2.194 58.369V37.053l37.673 21.816L21.41 69.458zm0 46.083V83.135L20.65 93.795v21.316zm.75-22.616 18.836-10.869L41.366 59.73l18.457 10.689L21.41 92.494zm57.62 56.311-18.457-10.659v-22.176l18.457-10.658zm-18.457-34.555-1.12.65L22.15 115.12V93.804l38.414-22.077v21.207zm19.207-80.217L42.856 12.717 61.313 2.058l18.456 10.659zm19.206 104.113-18.457 10.659V94.654l18.457 10.658zm19.957-12.378-18.837-10.878-1.12-.65-18.457-10.658V71.717l38.414 22.077zm19.956-10.658-18.457 10.658V93.614l18.457-10.489zm-.76-22.616-18.606 10.578-38.264-21.987L81.39 59.66l18.347 10.658.62.36.37.22.12.07zm.76-23.467-19.206 11.089-18.337-10.659 37.553-21.746v21.316z"/></g><defs><clipPath id="clip0_5_86"><path fill="#fff" d="M.703.328h121.22v139.97H.702z"/></clipPath></defs></svg>