<svg xmlns="http://www.w3.org/2000/svg" width="141" height="127" fill="none"><g clip-path="url('#clip0_5_96')"><path fill="#fff" d="M115.171.381 88.997 15.378l.05 39.041-36.432-39.55L25.91.39.656 14.668V95.86l25.525 14.247L52.375 95.61v-6.658l35.572 37.291 52.678-30.413V14.668zM91.446 18.177l24.665 14.147v51.469L91.486 57.069zm-88.34-.7L25.46 30.386 87.077 96.59l.02 25.194-62.056-65.065v49.939L3.106 94.43zm46.82 69.125v7.579L27.37 106.658v-43.88l22.695 23.824zm88.37 7.838-48.77 28.144-.02-26.944L26.99 28.475 4.335 15.398 25.951 3.171l25.174 13.647 67.435 73.194V30.914L92.676 16.078 115.24 3.16l23.055 12.917z"/></g><defs><clipPath id="clip0_5_96"><path fill="#fff" d="M.656.375h139.97V126.25H.655z"/></clipPath></defs></svg>