<svg xmlns="http://www.w3.org/2000/svg" width="140" height="143" fill="none"><g clip-path="url('#clip0_5_105')"><path stroke="#fff" stroke-linecap="round" stroke-linejoin="round" stroke-miterlimit="10" stroke-width="2" d="M138.249 50.134a70.04 70.04 0 0 0-110.566-33.52A70.038 70.038 0 1 0 120.07 121.71h.03l.569-.57a14.722 14.722 0 0 0-20.818-20.819v-.01a40.555 40.555 0 0 1-62.925-50.203 40.555 40.555 0 0 1 61.225-9.334l1.97 1.98a4.97 4.97 0 0 1-.024 6.996 4.963 4.963 0 0 1-6.996.024l-2.73-2.74-.1.1a.8.8 0 0 0-.21-.32 30.741 30.741 0 1 0 1.7 47.627 4.974 4.974 0 0 0-.04-6.68c-1.97-2.13-5.34-1.57-7.01-.2a20.919 20.919 0 1 1-.56-32.898l.03-.02 1.77 1.77a14.722 14.722 0 0 0 20.819-20.819l-.22-.22a.9.9 0 0 0-.22-.42A50.365 50.365 0 0 0 29.861 99.67a50.366 50.366 0 0 0 77.259 7.292q.023-.052.05-.1a4.95 4.95 0 0 1 6.678-.075 4.943 4.943 0 0 1 .672 6.644 60.158 60.158 0 1 1 13.599-62.507c.73 2.03 2.44 4.99 5.93 4.77a4.37 4.37 0 0 0 4.2-5.56" clip-rule="evenodd"/></g><defs><clipPath id="clip0_5_105"><path fill="#fff" d="M.516.313h138.922v142H.516z"/></clipPath></defs></svg>