<svg xmlns="http://www.w3.org/2000/svg" width="141" height="123" fill="none"><g clip-path="url('#clip0_5_114')"><path fill="#fff" d="M116.898 101.962c.01-.01.01-.03.02-.04a.3.3 0 0 0 .04-.1l.03-.1a.3.3 0 0 0 .01-.1c0-.02.01-.03.01-.05s-.01-.03-.01-.05-.01-.07-.01-.1-.02-.07-.03-.1a1 1 0 0 0-.04-.1c-.01-.01-.01-.03-.02-.04l-11.216-19.425h22.422a.8.8 0 0 0 .35-.09c.03-.02.05-.04.08-.06a.6.6 0 0 0 .2-.2c.01-.02.03-.03.05-.05l11.356-19.664c.01-.01.01-.03.02-.04a.3.3 0 0 0 .04-.1l.03-.1a.3.3 0 0 0 .01-.1c0-.02.01-.03.01-.05s-.01-.03-.01-.05-.01-.07-.01-.1-.02-.07-.03-.1a1 1 0 0 0-.04-.1c-.01-.01-.01-.03-.02-.04l-11.356-19.665a.4.4 0 0 0-.06-.07.6.6 0 0 0-.11-.12 2 2 0 0 0-.13-.09.5.5 0 0 0-.13-.06.5.5 0 0 0-.16-.03c-.03 0-.06-.02-.09-.02h-22.422l11.216-19.425c.01-.01.01-.03.02-.04a.3.3 0 0 0 .04-.1l.03-.1a.3.3 0 0 0 .01-.1c0-.02.01-.03.01-.05s-.01-.03-.01-.05-.01-.07-.01-.1-.02-.07-.03-.1a1 1 0 0 0-.04-.1c-.01-.01-.01-.03-.02-.04L105.552.988a.4.4 0 0 0-.06-.07 1 1 0 0 0-.1-.12 1 1 0 0 0-.13-.09.5.5 0 0 0-.13-.06.5.5 0 0 0-.16-.03c-.03 0-.059-.02-.089-.02H82.181c-.02 0-.03.01-.05.01s-.07.01-.1.01l-.11.03a.4.4 0 0 0-.09.04.06.06 0 0 1-.04.01l-.03.03a.5.5 0 0 0-.08.06.6.6 0 0 0-.08.08c-.02.03-.04.05-.06.08a.1.1 0 0 0-.03.04L70.295 20.413 59.079.988a.4.4 0 0 0-.06-.07 1 1 0 0 0-.11-.12 1 1 0 0 0-.12-.08.5.5 0 0 0-.13-.06.4.4 0 0 0-.16-.03c-.03 0-.06-.02-.09-.02H35.707c-.02 0-.03.01-.05.01s-.07.01-.1.01l-.11.03a.4.4 0 0 0-.09.04.06.06 0 0 1-.04.01.1.1 0 0 1-.04.03.5.5 0 0 0-.08.06.6.6 0 0 0-.08.08c-.02.03-.04.05-.06.08a.1.1 0 0 0-.03.04L23.681 20.663a.3.3 0 0 0-.03.09 1 1 0 0 0-.05.15q-.02.15 0 .3a1 1 0 0 0 .05.15.3.3 0 0 0 .03.09l11.216 19.425H12.475c-.02 0-.03.01-.05.01s-.07.01-.1.01l-.11.03a.4.4 0 0 0-.09.04c-.01.01-.03.01-.04.02l-.03.03a.6.6 0 0 0-.08.06.6.6 0 0 0-.08.08c-.02.03-.04.05-.06.08a.1.1 0 0 0-.03.04L.45 60.933a.3.3 0 0 0-.03.09 1 1 0 0 0-.05.15q-.02.15 0 .3a1 1 0 0 0 .05.15.3.3 0 0 0 .03.09l11.356 19.664.03.03a.6.6 0 0 0 .07.09c.04.04.08.07.12.11.03.02.04.05.07.06a.06.06 0 0 0 .04.01.8.8 0 0 0 .35.09h22.422l-11.206 19.425a.3.3 0 0 0-.03.09 1 1 0 0 0-.05.15q-.02.15 0 .3a1 1 0 0 0 .05.15.3.3 0 0 0 .03.09l11.346 19.665.03.03a.6.6 0 0 0 .07.09c.04.04.08.07.12.11.03.02.04.05.07.06a.06.06 0 0 0 .04.01.8.8 0 0 0 .35.09h22.702a.8.8 0 0 0 .35-.09c.03-.02.05-.04.08-.06a.6.6 0 0 0 .2-.2c.01-.02.03-.03.05-.05l11.216-19.425 11.216 19.425.03.03a.6.6 0 0 0 .07.09c.04.04.08.07.12.11.03.02.04.05.07.06a.06.06 0 0 0 .04.01.8.8 0 0 0 .35.09h22.702a.8.8 0 0 0 .349-.09c.03-.02.05-.04.08-.06a.6.6 0 0 0 .2-.2c.01-.02.03-.03.05-.05zm-12.485 18.485H83.52l10.446-18.095h20.893zm-46.484 0H37.036l22.343-38.69H80.27zm-44.134-40.27L24.24 62.083h44.674L58.47 80.178zm-1.36-36.97 10.446 18.096-10.446 18.095L1.99 61.303zm12.796-22.174L35.677 2.938l22.342 38.69-10.446 18.095zM82.17 2.948l10.446 18.095-22.332 38.69-10.447-18.095zm22.242-.79 10.446 18.095H93.966L83.52 2.158zm23.252 40.27 10.446 18.095H93.437L82.99 42.427zm-46.044.78 9.986 17.305H71.624zM68.915 60.512H48.932l9.987-17.306zm1.36 2.36 9.986 17.305H60.278zm1.36-.78h20.882l22.332 38.689H93.956zm22.701 0h43.765l-10.446 18.095h-22.882zM82.99 40.847l10.986-19.025h20.893l-10.986 19.025zm-24.071-.78L37.037 2.158h20.892l11.446 19.815zM46.203 60.513H24.231L13.785 42.417h21.972zM57.56 81.757l-21.882 37.911-10.446-18.096 11.436-19.815zm24.062.78 10.986 19.025-10.446 18.096-10.987-19.035z"/></g><defs><clipPath id="clip0_5_114"><path fill="#fff" d="M.36.594h139.89v121.438H.36z"/></clipPath></defs></svg>